PathFileType	4	(X/Y/Z)	/Users/niels/Desktop/University/Third Semester/Perception and Action/Exam/Gymnastics Motion Tracking/Code for Gym Tracking/Analyzed Data/Webcam_Backflip/id2002_2_trajectory_Sports2D/id2002_2_trajectory_Sports2D_px_person00.trc
DataRate	CameraRate	NumFrames	NumMarkers	Units	OrigDataRate	OrigDataStartFrame	OrigNumFrames
29.798657718120804	29.798657718120804	15	22	m	29.798657718120804	93	149
Frame#	Time	Hip			RHip			RKnee			RAnkle			RBigToe			RSmallToe			RHeel			LHip			LKnee			LAnkle			LBigToe			LSmallToe			LHeel			Neck			Head			Nose			RShoulder			RElbow			RWrist			LShoulder			LElbow			LWrist		
		X1	Y1	Z1	X2	Y2	Z2	X3	Y3	Z3	X4	Y4	Z4	X5	Y5	Z5	X6	Y6	Z6	X7	Y7	Z7	X8	Y8	Z8	X9	Y9	Z9	X10	Y10	Z10	X11	Y11	Z11	X12	Y12	Z12	X13	Y13	Z13	X14	Y14	Z14	X15	Y15	Z15	X16	Y16	Z16	X17	Y17	Z17	X18	Y18	Z18	X19	Y19	Z19	X20	Y20	Z20	X21	Y21	Z21	X22	Y22	Z22
93	3.1209459459459463	0.9832338630232974	-0.6957312007134192	0.0	0.9411501764207967	-0.7072277596611944	0.0	0.9501953492356487	-1.029786706744848	0.0	0.9490837197763596	-1.085171795927613	0.0			0.0			0.0			0.0	1.025889842171093	-0.7037334230291791	0.0	1.0107382626733354	-1.0223167566811284	0.0	1.008805870327978	-1.0791733681648612	0.0			0.0			0.0	0.74603759765625	-1.06143896484375	0.0	0.9632700407753633	-0.21499558178984607	0.0	0.9947851279975449	-0.021762985560709658	0.0	1.006652358890025	-0.1237933787604223	0.0	0.8763358500978269	-0.2761241266938824	0.0	0.827259114933775	-0.5028216676659449	0.0	0.8783598737002062	-0.7432812569255853	0.0	1.0334141103868668	-0.27185313039717657	0.0	1.0192748600361314	-0.47026754931750847	0.0	1.093473656353853	-0.4557475142501189	0.0
94	3.154504504504505	0.9898932328841642	-0.6976457763498481	0.0	0.9484689785770384	-0.7098140991910011	0.0	0.954490884164602	-1.0332247963154246	0.0	0.9542394005176754	-1.08595709754917	0.0			0.0			0.0			0.0	1.0317594656089968	-0.7050992946832969	0.0	1.0173551671911092	-1.0265123219186845	0.0	1.0161731087055368	-1.080598504057242	0.0			0.0			0.0	0.74603759765625	-1.06143896484375	0.0	0.9604069267278197	-0.21716648455412835	0.0	0.9901937302364664	-0.022344693234421436	0.0	1.0020449270370972	-0.12536031889729748	0.0	0.8753149375837329	-0.2776664116571166	0.0	0.826021089700471	-0.5036824201413062	0.0	0.8709318841761967	-0.7455264046672367	0.0	1.0309049208277097	-0.27153939833739543	0.0	1.0183802336147412	-0.4688570897397659	0.0	1.0928832558561692	-0.45446824024793614	0.0
95	3.1880630630630633	0.9956036485756307	-0.6999919279688912	0.0	0.9544385094662495	-0.713154408413015	0.0	0.9583235316840507	-1.0376167235592146	0.0	0.9578171910246613	-1.0861693564338235	0.0			0.0			0.0			0.0	1.0371846829992757	-0.7075854810963703	0.0	1.0237432364498082	-1.0320115057279045	0.0	1.022936617545244	-1.0818328708026748	0.0			0.0			0.0	0.74603759765625	-1.06143896484375	0.0	0.9578097038571135	-0.21949826491370575	0.0	0.9856018496629942	-0.023229329017292365	0.0	0.9977797660149986	-0.12677793314025898	0.0	0.874434959422768	-0.2794167628168521	0.0	0.8249802224877166	-0.504758611975671	0.0	0.8647266988588834	-0.7478321614910013	0.0	1.028039726567783	-0.27243457998183995	0.0	1.0161175922812955	-0.4685741136762317	0.0	1.0922166967282534	-0.4532675968661303	0.0
96	3.221621621621622	1.0001567447584976	-0.7027125893738579	0.0	0.9592591113743051	-0.7170391678509045	0.0	0.9621076704258427	-1.0422867104365552	0.0	0.9603506949314696	-1.0857418120429465	0.0			0.0			0.0			0.0	1.0418247086154373	-0.7109179832734955	0.0	1.0294450790371015	-1.0380678144451068	0.0	1.028461523280265	-1.0827760592741442	0.0			0.0			0.0	0.74603759765625	-1.06143896484375	0.0	0.9553504119309528	-0.22197181551447803	0.0	0.981136131364862	-0.02447356465827517	0.0	0.9940062128988745	-0.12811829209151562	0.0	0.8735204840249894	-0.28140231556085593	0.0	0.8243064851887636	-0.5061556700060953	0.0	0.8600920723600521	-0.7503827491932541	0.0	1.024736567788198	-0.27454551807474403	0.0	1.0120058060193786	-0.4698633777032762	0.0	1.091337648629114	-0.4525983241034763	0.0
97	3.2551801801801807	1.0036608474677395	-0.7057113196717055	0.0	0.963346050133889	-0.72118327472405	0.0	0.9665533023622982	-1.046332523697836	0.0	0.9625358264599809	-1.0849232765143957	0.0			0.0			0.0			0.0	1.0456504734549654	-0.7146677201751703	0.0	1.0344625553458529	-1.0434931834871344	0.0	1.032475439707496	-1.083405376226034	0.0			0.0			0.0	0.74603759765625	-1.06143896484375	0.0	0.9529263252726355	-0.22449292077960767	0.0	0.976936525504385	-0.02609136630500549	0.0	0.9907773365595389	-0.12947508769330748	0.0	0.8723893638937137	-0.2836674551104262	0.0	0.8241083432365603	-0.5080145691074598	0.0	0.8573300993068471	-0.7533221921344164	0.0	1.0210829050168733	-0.2776324720700653	0.0	1.0063782781265853	-0.47274822958296625	0.0	1.0900974906810197	-0.45289638782053787	0.0
98	3.288738738738739	1.006530986512931	-0.7088277574683497	0.0	0.967161340230317	-0.725299713681343	0.0	0.9721366583687105	-1.0492013028638951	0.0	0.9650257161825258	-1.0840552062153401	0.0			0.0			0.0			0.0	1.048929161655257	-0.7183771351146692	0.0	1.0391382898279529	-1.0474175125673866	0.0	1.0352355797110049	-1.083692516441675	0.0			0.0			0.0	0.74603759765625	-1.06143896484375	0.0	0.950499278593982	-0.22693709243692528	0.0	0.973123824334197	-0.02797164034045567	0.0	0.9880750648155653	-0.13090916699787788	0.0	0.8709762496859541	-0.2861879175543098	0.0	0.8244045255240413	-0.51042271073625	0.0	0.8566292393268365	-0.7567359377892365	0.0	1.0173305394197611	-0.2812704103943935	0.0	1.00038433130862	-0.4767441275685894	0.0	1.0884953361064298	-0.45428653454745166	0.0
99	3.3222972972972977	1.009273830316178	-0.7119156842378205	0.0	0.9711204619580099	-0.7291598368096663	0.0	0.9788274371452499	-1.0509446774738394	0.0	0.9683187111367669	-1.0834034652207538	0.0			0.0			0.0			0.0	1.0519955058944497	-0.721733586180132	0.0	1.0437098157373927	-1.049759709728383	0.0	1.0372386626368308	-1.083668230206563	0.0			0.0			0.0	0.74603759765625	-1.06143896484375	0.0	0.9481017974473344	-0.22923632823218842	0.0	0.9697605866902441	-0.029915657402558554	0.0	0.9858713258588916	-0.132433772019028	0.0	0.869398193830918	-0.28882314356576483	0.0	0.8251024194737334	-0.5133487355552555	0.0	0.8579920224757897	-0.7605466672181979	0.0	1.0137213918574661	-0.28506533839780895	0.0	0.9951059191167727	-0.4812656397933994	0.0	1.0866489186504424	-0.45658606280246755	0.0
100	3.3558558558558564	1.0122143815662656	-0.7148114655321669	0.0	0.9755026351379085	-0.7325376655593061	0.0	0.9862159897413703	-1.0519209234626103	0.0	0.9727844778667482	-1.0830813880488162	0.0			0.0			0.0			0.0	1.0550396028993247	-0.7245635332685216	0.0	1.048002712766114	-1.050927715016146	0.0	1.038854901163813	-1.0834401851176745	0.0			0.0			0.0	0.74603759765625	-1.06143896484375	0.0	0.9458171157920283	-0.23136821312996003	0.0	0.9668157923734397	-0.031752088540123964	0.0	0.984107030564801	-0.13402421496294395	0.0	0.8678578670657308	-0.2913313225392667	0.0	0.8260177648783	-0.5166257864154922	0.0	0.8611944678039926	-0.7643989162703348	0.0	1.0104287877538105	-0.2887241526641128	0.0	0.9910428913160352	-0.4858073571390321	0.0	1.0847749876257728	-0.45944839378302404	0.0
101	3.3894144144144147	1.0153743508850022	-0.7172916825201957	0.0	0.9802871516096064	-0.7352113367704851	0.0	0.9936490332795073	-1.0524336103528027	0.0	0.978563999780863	-1.0830476274566556	0.0			0.0			0.0			0.0	1.058088638088287	-0.7267447144005154	0.0	1.051580965443495	-1.051347076593125	0.0	1.0402207778343189	-1.0831115549922106	0.0			0.0			0.0	0.74603759765625	-1.06143896484375	0.0	0.9437157006900654	-0.23330167682358052	0.0	0.9641979457232377	-0.03339452892224487	0.0	0.9826399376474666	-0.1356324558180442	0.0	0.866502799840691	-0.29351201028565904	0.0	0.826966204349511	-0.519974065493788	0.0	0.8658251906194886	-0.7677129040852265	0.0	1.0075916908121418	-0.29199678768422493	0.0	0.9881520241639126	-0.48988417473077844	0.0	1.0830891877328552	-0.46250597386703257	0.0
102	3.4229729729729734	1.0185443810016566	-0.7191455215187841	0.0	0.9850569528722438	-0.7370675030543725	0.0	1.0002354693654552	-1.052617107897982	0.0	0.9852665178343735	-1.0831816412996784	0.0			0.0			0.0			0.0	1.06106533028965	-0.7281959716465444	0.0	1.054143348121766	-1.0513306427488844	0.0	1.0413941130186062	-1.0827565398710501	0.0			0.0			0.0	0.74603759765625	-1.06143896484375	0.0	0.941858909065253	-0.2349873310651653	0.0	0.9618342739244028	-0.03480810920840292	0.0	0.9813236370785489	-0.1371767601897397	0.0	0.8653969281372458	-0.29532468868685435	0.0	0.8278441629631254	-0.5230454665504468	0.0	0.8714186559980464	-0.7699132063435395	0.0	1.0053537227869986	-0.294624497126777	0.0	0.9861507853698559	-0.4930977458706489	0.0	1.0816828743015532	-0.4654317253672621	0.0
103	3.456531531531532	1.0214170033620684	-0.7202820237557287	0.0	0.9891502148707738	-0.7381662326731775	0.0	1.0049754429051962	-1.0525230149926088	0.0	0.991811785121402	-1.0833640662830477	0.0			0.0			0.0			0.0	1.0637858482330889	-0.7289395838163429	0.0	1.0557066654706349	-1.0511368897169342	0.0	1.042435225247695	-1.0824309345685221	0.0			0.0			0.0	0.74603759765625	-1.06143896484375	0.0	0.9403559322642698	-0.2363343823535982	0.0	0.9597157769449817	-0.03594538705861125	0.0	0.9801157189239942	-0.13851893821074457	0.0	0.8645877314873912	-0.2967938050962197	0.0	0.8286200874069028	-0.5255291615503128	0.0	0.8775780965732892	-0.7706525918857554	0.0	1.0039003701179405	-0.29633034668152713	0.0	0.9849176732074593	-0.4952898513094259	0.0	1.0805937872031688	-0.4679200274577484	0.0
104	3.4900900900900904	1.0237045852823297	-0.7207523013612197	0.0	0.9920467366055078	-0.7386626081762944	0.0	1.0071724620329896	-1.0522439545316056	0.0	0.996764441426639	-1.083490574632366	0.0			0.0			0.0			0.0	1.065984757846356	-0.7291266122816223	0.0	1.0563979199410196	-1.0509666863195428	0.0	1.043267854380916	-1.0821593485825935	0.0			0.0			0.0	0.74603759765625	-1.06143896484375	0.0	0.9393249115231581	-0.23718747386690206	0.0	0.9579000330340325	-0.03671430871252622	0.0	0.9790712521604177	-0.1395013571106456	0.0	0.864114980673118	-0.2978651917541498	0.0	0.8292892907152675	-0.5272711687695167	0.0	0.8840230574197322	-0.7699386312543878	0.0	1.0033639784081363	-0.296961729598626	0.0	0.9845844650185941	-0.4965663377754046	0.0	1.0798925012166787	-0.46968885703568103	0.0
105	3.523648648648649	1.025232643900322	-0.7206356427020454	0.0	0.9936397145440985	-0.7386335293896051	0.0	1.0068092612326618	-1.0518843222000882	0.0	0.999024162343185	-1.0834668570919388	0.0			0.0			0.0			0.0	1.0674063203302222	-0.7288975035418204	0.0	1.0562537029179606	-1.0508554876075213	0.0	1.043703135471832	-1.0819252933188401	0.0			0.0			0.0	0.74603759765625	-1.06143896484375	0.0	0.9387963618711558	-0.237401792507499	0.0	0.9565006659929812	-0.03698906161073112	0.0	0.9782880143119447	-0.139989806015427	0.0	0.863939311255191	-0.29842468541948974	0.0	0.829870931769033	-0.5282489036632073	0.0	0.890585587735323	-0.7680959796790268	0.0	1.0036336130538326	-0.29667778880113277	0.0	0.9852777370892839	-0.49712592013556467	0.0	1.0796100536749451	-0.4704908544533832	0.0
106	3.557207207207208	1.0259007780330847	-0.7198761940237174	0.0	0.9940811313959113	-0.7379400962212103	0.0	1.004452289775675	-1.051405871372236	0.0	0.9983040464829794	-1.0832659366463004	0.0			0.0			0.0			0.0	1.0678199560731472	-0.7281775942442176	0.0	1.0552448396383278	-1.0505920841261027	0.0	1.0436022101981768	-1.081701037085076	0.0			0.0			0.0	0.74603759765625	-1.06143896484375	0.0	0.9386884289320772	-0.23694388985391684	0.0	0.955708658365673	-0.036652615574457	0.0	0.977880913043464	-0.13985738704364079	0.0	0.8639352027282065	-0.29839074576833646	0.0	0.8304222829745104	-0.5284671498362732	0.0	0.897147754635756	-0.7655343347968233	0.0	1.0042887358318864	-0.2959227867784549	0.0	0.9869082076563411	-0.4970726321438942	0.0	1.079722454326974	-0.47007785063701274	0.0
107	3.590765765765766	1.025543905688567	-0.7182554619038276	0.0	0.9934060226157085	-0.7362217183339004	0.0	1.0007238269368883	-1.0505703081732385	0.0	0.9949915866185536	-1.0829734512868494	0.0			0.0			0.0			0.0	1.067000146446276	-0.7266715888744192	0.0	1.0533414450331013	-1.049776621932072	0.0	1.042819264335982	-1.0815125057979214	0.0			0.0			0.0	0.74603759765625	-1.06143896484375	0.0	0.9388812797459041	-0.23589653812751696	0.0	0.9557952990111954	-0.035675552347151966	0.0	0.9779704735667848	-0.13903124956521845	0.0	0.8639899983075042	-0.2977519261569554	0.0	0.8310440165868863	-0.527953693848664	0.0	0.9035614063725298	-0.7625251397081277	0.0	1.0048251740077885	-0.29513357516960864	0.0	0.9892342895013853	-0.49638865902508184	0.0	1.0802695139863863	-0.4681894333963512	0.0
